<svg width="168" height="168" viewBox="0 0 168 168" fill="none" xmlns="http://www.w3.org/2000/svg">
<path d="M124.11 84.1399L151.97 56.2799C154.7 53.5499 154.7 49.1399 151.97 46.4099L121.59 16.0299C118.86 13.2999 114.45 13.2999 111.72 16.0299L83.8596 43.8899L55.9996 16.0299C54.5996 14.6999 52.8496 13.9999 51.0296 13.9999C49.2796 13.9999 47.4596 14.6999 46.1296 16.0299L15.7496 46.4099C13.0196 49.1399 13.0196 53.5499 15.7496 56.2799L43.6096 84.1399L15.7496 112C13.0196 114.73 13.0196 119.14 15.7496 121.87L46.1296 152.25C48.8596 154.98 53.2696 154.98 55.9996 152.25L83.8596 124.39L111.72 152.25C113.12 153.65 114.87 154.28 116.69 154.28C118.51 154.28 120.26 153.58 121.66 152.25L152.04 121.87C154.77 119.14 154.77 114.73 152.04 112L124.11 84.1399V84.1399ZM83.9996 62.9999C87.8496 62.9999 90.9996 66.1499 90.9996 69.9999C90.9996 73.8499 87.8496 76.9999 83.9996 76.9999C80.1496 76.9999 76.9996 73.8499 76.9996 69.9999C76.9996 66.1499 80.1496 62.9999 83.9996 62.9999ZM51.0296 76.7199L25.6196 51.3799L51.0296 25.9699L76.3696 51.3099L51.0296 76.7199ZM69.9996 90.9999C66.1496 90.9999 62.9996 87.8499 62.9996 83.9999C62.9996 80.1499 66.1496 76.9999 69.9996 76.9999C73.8496 76.9999 76.9996 80.1499 76.9996 83.9999C76.9996 87.8499 73.8496 90.9999 69.9996 90.9999ZM83.9996 105C80.1496 105 76.9996 101.85 76.9996 97.9999C76.9996 94.1499 80.1496 90.9999 83.9996 90.9999C87.8496 90.9999 90.9996 94.1499 90.9996 97.9999C90.9996 101.85 87.8496 105 83.9996 105ZM97.9996 76.9999C101.85 76.9999 105 80.1499 105 83.9999C105 87.8499 101.85 90.9999 97.9996 90.9999C94.1496 90.9999 90.9996 87.8499 90.9996 83.9999C90.9996 80.1499 94.1496 76.9999 97.9996 76.9999ZM116.62 142.38L91.2096 117.04L116.62 91.6299L141.96 116.97L116.62 142.38Z" fill="white"/>
</svg>
